<svg width="50" height="50" viewBox="0 0 50 50" fill="none" xmlns="http://www.w3.org/2000/svg">
<g opacity="0.3">
<path d="M10.4167 10.4167H37.5C39.1576 10.4167 40.7473 11.0752 41.9194 12.2473C43.0915 13.4194 43.75 15.0091 43.75 16.6667V35.4167C43.75 37.0743 43.0915 38.664 41.9194 39.8361C40.7473 41.0082 39.1576 41.6667 37.5 41.6667H10.4167C8.75908 41.6667 7.16937 41.0082 5.99727 39.8361C4.82517 38.664 4.16669 37.0743 4.16669 35.4167V16.6667C4.16669 15.0091 4.82517 13.4194 5.99727 12.2473C7.16937 11.0752 8.75908 10.4167 10.4167 10.4167ZM10.4167 12.5C9.37502 12.5 8.45835 12.8542 7.75002 13.4792L23.9584 23.9584L40.1667 13.4792C39.4584 12.8542 38.5417 12.5 37.5 12.5H10.4167ZM23.9584 26.4792L6.52085 15.1667C6.35419 15.625 6.25002 16.1459 6.25002 16.6667V35.4167C6.25002 36.5218 6.68901 37.5816 7.47041 38.363C8.25181 39.1444 9.31162 39.5834 10.4167 39.5834H37.5C38.6051 39.5834 39.6649 39.1444 40.4463 38.363C41.2277 37.5816 41.6667 36.5218 41.6667 35.4167V16.6667C41.6667 16.1459 41.5625 15.625 41.3959 15.1667L23.9584 26.4792Z" fill="#FFFBF6"/>
</g>
</svg>
