<svg width="50" height="50" viewBox="0 0 50 50" fill="none" xmlns="http://www.w3.org/2000/svg">
<g opacity="0.3">
<path d="M15.625 18.75H7.29167C7.0154 18.75 6.75045 18.8598 6.5551 19.0551C6.35975 19.2505 6.25 19.5154 6.25 19.7917V44.7917C6.25 45.0679 6.35975 45.3329 6.5551 45.5282C6.75045 45.7236 7.0154 45.8333 7.29167 45.8333H15.625C15.9013 45.8333 16.1662 45.7236 16.3616 45.5282C16.5569 45.3329 16.6667 45.0679 16.6667 44.7917V19.7917C16.6667 19.5154 16.5569 19.2505 16.3616 19.0551C16.1662 18.8598 15.9013 18.75 15.625 18.75ZM14.5833 43.75H8.33334V20.8333H14.5833V43.75ZM37.5 18.75C35.2396 18.75 33.0417 19.4958 31.25 20.8729V19.7917C31.25 19.5154 31.1403 19.2505 30.9449 19.0551C30.7496 18.8598 30.4846 18.75 30.2083 18.75H21.875C21.5987 18.75 21.3338 18.8598 21.1384 19.0551C20.9431 19.2505 20.8333 19.5154 20.8333 19.7917V44.7917C20.8333 45.0679 20.9431 45.3329 21.1384 45.5282C21.3338 45.7236 21.5987 45.8333 21.875 45.8333H30.2083C30.4846 45.8333 30.7496 45.7236 30.9449 45.5282C31.1403 45.3329 31.25 45.0679 31.25 44.7917V33.3333C31.25 32.5045 31.5792 31.7097 32.1653 31.1236C32.7513 30.5376 33.5462 30.2083 34.375 30.2083C35.2038 30.2083 35.9987 30.5376 36.5847 31.1236C37.1708 31.7097 37.5 32.5045 37.5 33.3333V44.7917C37.5 45.0679 37.6097 45.3329 37.8051 45.5282C38.0004 45.7236 38.2654 45.8333 38.5417 45.8333H46.875C47.1513 45.8333 47.4162 45.7236 47.6116 45.5282C47.8069 45.3329 47.9167 45.0679 47.9167 44.7917V29.1667C47.9134 26.405 46.8148 23.7574 44.862 21.8046C42.9093 19.8518 40.2617 18.7533 37.5 18.75ZM45.8333 43.75H39.5833V33.3333C39.5833 31.952 39.0346 30.6272 38.0578 29.6505C37.0811 28.6737 35.7563 28.125 34.375 28.125C32.9937 28.125 31.6689 28.6737 30.6922 29.6505C29.7154 30.6272 29.1667 31.952 29.1667 33.3333V43.75H22.9167V20.8333H29.1667V23.3396C29.1666 23.5553 29.2336 23.7658 29.3583 23.9418C29.4829 24.1179 29.6592 24.2509 29.8627 24.3225C30.0663 24.3941 30.287 24.4007 30.4944 24.3414C30.7019 24.2822 30.8858 24.16 31.0208 23.9917C32.0907 22.6356 33.557 21.6471 35.2155 21.1642C36.8739 20.6813 38.6417 20.7279 40.2723 21.2976C41.9029 21.8673 43.3152 22.9316 44.312 24.3422C45.3089 25.7529 45.8407 27.4394 45.8333 29.1667V43.75ZM12.225 4.17084C11.9802 4.15359 11.7346 4.15219 11.4896 4.16667C10.7099 4.11362 9.9277 4.22122 9.19132 4.4828C8.45495 4.74437 7.78012 5.15436 7.20865 5.68735C6.63718 6.22035 6.18123 6.86501 5.86904 7.5814C5.55686 8.29778 5.39509 9.07064 5.39375 9.85209C5.38728 10.6254 5.53974 11.3917 5.84167 12.1037C6.14361 12.8156 6.58857 13.4579 7.14899 13.9908C7.7094 14.5237 8.37331 14.9357 9.09954 15.2014C9.82578 15.4671 10.5989 15.5808 11.3708 15.5354H11.4292C12.1754 15.5877 12.9246 15.4924 13.634 15.2552C14.3434 15.0179 14.9991 14.6432 15.5637 14.1525C16.1283 13.6618 16.5907 13.0647 16.9246 12.3953C17.2584 11.7259 17.4571 10.9973 17.5094 10.251C17.5616 9.50484 17.4664 8.75564 17.2291 8.04624C16.9918 7.33683 16.6171 6.68111 16.1264 6.11651C15.6357 5.55191 15.0386 5.08949 14.3692 4.75565C13.6998 4.42181 12.9712 4.22309 12.225 4.17084ZM12.1521 13.4583C11.9115 13.4802 11.6693 13.4781 11.4292 13.4521H11.3708C10.8694 13.4898 10.3657 13.4225 9.89175 13.2546C9.41781 13.0866 8.9841 12.8217 8.6183 12.4767C8.2525 12.1317 7.96266 11.7143 7.76728 11.251C7.57189 10.7877 7.47526 10.2887 7.48355 9.78597C7.49184 9.28323 7.60487 8.78773 7.81542 8.33113C8.02597 7.87452 8.32942 7.46683 8.70639 7.1341C9.08336 6.80136 9.52557 6.55088 10.0048 6.39866C10.484 6.24643 10.9897 6.1958 11.4896 6.25001C12.4455 6.16215 13.3971 6.45762 14.1351 7.07141C14.8732 7.6852 15.3371 8.56704 15.425 9.52292C15.5129 10.4788 15.2174 11.4304 14.6036 12.1685C13.9898 12.9065 13.108 13.3705 12.1521 13.4583Z" fill="#FFFBF6"/>
</g>
</svg>
