<svg width="45" height="45" viewBox="0 0 45 45" fill="none" xmlns="http://www.w3.org/2000/svg">
<path d="M14.625 28.125C14.3266 28.125 14.0405 28.0065 13.8295 27.7955C13.6185 27.5845 13.5 27.2984 13.5 27C13.5 26.7016 13.6185 26.4155 13.8295 26.2045C14.0405 25.9935 14.3266 25.875 14.625 25.875H30.375C30.6734 25.875 30.9595 25.9935 31.1705 26.2045C31.3815 26.4155 31.5 26.7016 31.5 27C31.5 27.2984 31.3815 27.5845 31.1705 27.7955C30.9595 28.0065 30.6734 28.125 30.375 28.125H14.625ZM14.625 33.75C14.3266 33.75 14.0405 33.6315 13.8295 33.4205C13.6185 33.2095 13.5 32.9234 13.5 32.625C13.5 32.3266 13.6185 32.0405 13.8295 31.8295C14.0405 31.6185 14.3266 31.5 14.625 31.5H30.375C30.6734 31.5 30.9595 31.6185 31.1705 31.8295C31.3815 32.0405 31.5 32.3266 31.5 32.625C31.5 32.9234 31.3815 33.2095 31.1705 33.4205C30.9595 33.6315 30.6734 33.75 30.375 33.75H14.625Z" fill="#FFFBF6"/>
<path fill-rule="evenodd" clip-rule="evenodd" d="M25.1663 2.25H10.125C9.22989 2.25 8.37145 2.60558 7.73851 3.23852C7.10558 3.87145 6.75 4.72989 6.75 5.625V39.375C6.75 40.2701 7.10558 41.1285 7.73851 41.7615C8.37145 42.3944 9.22989 42.75 10.125 42.75H34.875C35.7701 42.75 36.6285 42.3944 37.2615 41.7615C37.8944 41.1285 38.25 40.2701 38.25 39.375V16.2045C38.2498 15.3596 37.9326 14.5454 37.3612 13.923L27.6548 3.3435C27.3384 2.99868 26.9539 2.7234 26.5255 2.53515C26.0971 2.3469 25.6342 2.2498 25.1663 2.25ZM9 5.625C9 5.32663 9.11853 5.04048 9.32951 4.82951C9.54048 4.61853 9.82663 4.5 10.125 4.5H25.1663C25.3224 4.49983 25.4768 4.53215 25.6197 4.5949C25.7627 4.65765 25.891 4.74947 25.9965 4.8645L35.703 15.444C35.8937 15.6514 35.9997 15.9228 36 16.2045V39.375C36 39.6734 35.8815 39.9595 35.6705 40.1705C35.4595 40.3815 35.1734 40.5 34.875 40.5H10.125C9.82663 40.5 9.54048 40.3815 9.32951 40.1705C9.11853 39.9595 9 39.6734 9 39.375V5.625Z" fill="#FFFBF6"/>
<path d="M25.875 4.7251V15.3001H36.45" stroke="#FFFBF6" stroke-width="2.25" stroke-linecap="round" stroke-linejoin="round"/>
<path d="M18.3015 13.7992C18.6228 13.809 18.9428 13.7542 19.2426 13.638C19.5423 13.5219 19.8156 13.3467 20.0464 13.1229C20.2772 12.8991 20.4606 12.6312 20.5859 12.3352C20.7112 12.0392 20.7757 11.721 20.7757 11.3995C20.7757 11.0781 20.7112 10.7599 20.5859 10.4639C20.4606 10.1678 20.2772 9.89995 20.0464 9.67616C19.8156 9.45236 19.5423 9.27718 19.2426 9.16102C18.9428 9.04485 18.6228 8.99006 18.3015 8.9999C17.6778 9.019 17.086 9.28019 16.6516 9.72813C16.2172 10.1761 15.9742 10.7755 15.9742 11.3995C15.9742 12.0235 16.2172 12.623 16.6516 13.0709C17.086 13.5189 17.6778 13.7801 18.3015 13.7992Z" fill="#FFFBF6"/>
<path fill-rule="evenodd" clip-rule="evenodd" d="M23.0985 18.9991C23.0985 16.4476 20.9498 14.6003 18.2993 14.6003C15.6488 14.6003 13.5 16.4453 13.5 18.9991V20.2006C13.5006 20.4126 13.5852 20.6158 13.7354 20.7655C13.8856 20.9153 14.089 20.9993 14.301 20.9993H22.2998C22.5114 20.9987 22.7142 20.9144 22.8639 20.7647C23.0136 20.6151 23.0979 20.4123 23.0985 20.2006V18.9991Z" fill="#FFFBF6"/>
</svg>
