<svg width="50" height="50" viewBox="0 0 50 50" fill="none" xmlns="http://www.w3.org/2000/svg">
<g opacity="0.3">
<path d="M31.25 20.8332C31.25 18.5311 28.4521 16.6665 25 16.6665C21.5479 16.6665 18.75 18.5311 18.75 20.8332C18.75 23.1353 21.5479 24.9998 25 24.9998C28.4521 24.9998 31.25 26.8644 31.25 29.1665C31.25 31.4686 28.4521 33.3332 25 33.3332C21.5479 33.3332 18.75 31.4686 18.75 29.1665" stroke="#FFFBF6" stroke-width="3.125" stroke-linecap="round" stroke-linejoin="round"/>
<path d="M37.5 41.6666C39.1159 41.6666 40.697 41.1967 42.0507 40.3143C43.4044 39.4319 44.4724 38.1749 45.1245 36.6964C45.7767 35.2179 45.9849 33.5817 45.7238 31.987C45.4628 30.3923 44.7437 28.9079 43.6542 27.7145C42.2479 26.1749 41.7833 25.5437 41.6 23.4937C41.2525 19.6081 39.548 15.9689 36.7854 13.2145C34.632 11.0602 31.9294 9.5373 28.9712 8.81116C26.013 8.08502 22.9124 8.18344 20.0062 9.09574C18.0417 9.71032 17.2771 9.52282 15.3104 8.81865C13.5583 8.19003 11.6461 8.16615 9.87881 8.75083C8.11152 9.33551 6.59088 10.4951 5.55936 12.0446C4.52784 13.5942 4.04484 15.4445 4.18738 17.3005C4.32992 19.1566 5.08979 20.9114 6.34583 22.2853C7.75208 23.8249 8.21666 24.4562 8.4 26.5062C8.7475 30.3917 10.452 34.0309 13.2146 36.7853C15.368 38.9396 18.0706 40.4625 21.0288 41.1886C23.987 41.9148 27.0876 41.8164 29.9937 40.9041C31.9583 40.2895 32.7229 40.477 34.6896 41.1812C35.5667 41.4937 36.5125 41.6666 37.5 41.6666Z" stroke="#FFFBF6" stroke-width="3.125" stroke-linecap="round" stroke-linejoin="round"/>
</g>
</svg>
