<svg width="50" height="50" viewBox="0 0 50 50" fill="none" xmlns="http://www.w3.org/2000/svg">
<g opacity="0.3">
<path d="M44.9219 6.50388C44.5444 6.17688 44.085 5.9587 43.593 5.87269C43.1011 5.78668 42.595 5.83608 42.1289 6.0156L6.07421 20.1758C5.521 20.3901 5.05251 20.7785 4.73942 21.2824C4.42632 21.7864 4.28562 22.3785 4.33854 22.9694C4.39146 23.5603 4.63512 24.1179 5.03277 24.5582C5.43042 24.9985 5.96048 25.2975 6.54296 25.4101L16.0156 27.3047V39.0625C16.0163 39.6012 16.176 40.1277 16.4749 40.576C16.7737 41.0242 17.1983 41.3742 17.6953 41.582C18.0304 41.7186 18.3881 41.7914 18.75 41.7969C19.1094 41.799 19.4656 41.7293 19.7977 41.5918C20.1298 41.4543 20.431 41.2517 20.6836 40.9961L26.0156 35.664L33.9844 42.6758C34.478 43.1184 35.1183 43.362 35.7812 43.3594C36.0669 43.3617 36.3509 43.3155 36.6211 43.2226C37.0721 43.0793 37.4774 42.8197 37.7963 42.47C38.1151 42.1203 38.3363 41.6927 38.4375 41.2304L45.8008 9.17967C45.9108 8.69588 45.8871 8.19128 45.7323 7.71991C45.5775 7.24855 45.2973 6.82819 44.9219 6.50388ZM6.69921 22.7539C6.68555 22.6715 6.70163 22.587 6.74457 22.5155C6.78751 22.4439 6.85451 22.39 6.93359 22.3633L37.1094 10.5078L16.9141 25.0976L7.01171 23.1054C6.9254 23.0958 6.84571 23.0545 6.78801 22.9896C6.7303 22.9247 6.69867 22.8407 6.69921 22.7539ZM19.0234 39.3359C18.9693 39.3927 18.8985 39.4308 18.8213 39.4449C18.7441 39.4589 18.6644 39.4481 18.5937 39.414C18.5251 39.3841 18.4665 39.335 18.4249 39.2727C18.3834 39.2104 18.3606 39.1374 18.3594 39.0625V28.9258L24.2383 34.1211L19.0234 39.3359ZM36.1719 40.7031C36.1585 40.7708 36.1274 40.8338 36.0818 40.8857C36.0362 40.9375 35.9776 40.9763 35.9121 40.9981C35.8466 41.02 35.7765 41.0241 35.7089 41.01C35.6413 40.9959 35.5787 40.9641 35.5273 40.9179L19.0625 26.4258L43.4766 8.80857L36.1719 40.7031Z" fill="#FFFBF6"/>
</g>
</svg>
