<svg width="50" height="54" viewBox="0 0 50 54" fill="none" xmlns="http://www.w3.org/2000/svg">
<g opacity="0.2" filter="url(#filter0_d_1399_3135)">
<path d="M41.6667 43.75V39.5833C41.6667 37.3732 40.7887 35.2536 39.2259 33.6908C37.6631 32.128 35.5435 31.25 33.3334 31.25H16.6667C14.4566 31.25 12.337 32.128 10.7742 33.6908C9.21135 35.2536 8.33337 37.3732 8.33337 39.5833V43.75" stroke="#FFFBF6" stroke-width="3" stroke-linecap="round" stroke-linejoin="round"/>
<path d="M25 22.9167C29.6023 22.9167 33.3333 19.1857 33.3333 14.5833C33.3333 9.98096 29.6023 6.25 25 6.25C20.3976 6.25 16.6666 9.98096 16.6666 14.5833C16.6666 19.1857 20.3976 22.9167 25 22.9167Z" stroke="#FFFBF6" stroke-width="3" stroke-linecap="round" stroke-linejoin="round"/>
</g>
<defs>
<filter id="filter0_d_1399_3135" x="-4" y="0" width="58" height="58" filterUnits="userSpaceOnUse" color-interpolation-filters="sRGB">
<feFlood flood-opacity="0" result="BackgroundImageFix"/>
<feColorMatrix in="SourceAlpha" type="matrix" values="0 0 0 0 0 0 0 0 0 0 0 0 0 0 0 0 0 0 127 0" result="hardAlpha"/>
<feOffset dy="4"/>
<feGaussianBlur stdDeviation="2"/>
<feComposite in2="hardAlpha" operator="out"/>
<feColorMatrix type="matrix" values="0 0 0 0 0 0 0 0 0 0 0 0 0 0 0 0 0 0 0.25 0"/>
<feBlend mode="normal" in2="BackgroundImageFix" result="effect1_dropShadow_1399_3135"/>
<feBlend mode="normal" in="SourceGraphic" in2="effect1_dropShadow_1399_3135" result="shape"/>
</filter>
</defs>
</svg>
