<svg width="92" height="63" viewBox="0 0 92 63" fill="none" xmlns="http://www.w3.org/2000/svg">
<g opacity="0.2">
<path d="M86.897 28.9296C86.0579 28.9296 85.3374 28.6742 84.7355 28.1635C84.1153 27.6527 83.6319 26.9596 83.2853 26.084C82.9205 25.2085 82.7381 24.187 82.7381 23.0195C82.7381 22.2534 82.811 21.4599 82.957 20.6391C83.0847 19.8182 83.2671 19.0795 83.5042 18.4228H81.9993C80.613 18.4228 79.5003 18.8332 78.6612 19.6541C77.8039 20.4567 77.3752 21.542 77.3752 22.9101C77.3752 23.6032 77.5212 24.342 77.813 25.1264C78.1049 25.8925 78.5335 26.6769 79.099 27.4795L78.415 27.9446C77.7765 27.0143 77.3023 26.1296 76.9922 25.2905C76.6821 24.4515 76.527 23.6397 76.527 22.8554C76.527 21.2137 77.0287 19.9094 78.0319 18.9427C79.0169 17.9759 80.3576 17.4925 82.054 17.4925H89.5511C89.7517 17.4925 89.9068 17.456 90.0162 17.3831C90.1074 17.2919 90.153 17.1642 90.153 17H90.9739C90.9739 17.1277 90.9739 17.2371 90.9739 17.3283C90.9739 17.4013 90.9648 17.4651 90.9465 17.5199C90.8918 17.7752 90.755 17.9759 90.5361 18.1218C90.3172 18.2678 90.0801 18.3498 89.8247 18.3681H88.5934C89.4325 19.0248 90.0892 19.873 90.5635 20.9127C91.0195 21.9524 91.2475 23.0651 91.2475 24.2508C91.2475 25.1264 91.056 25.9198 90.6729 26.6312C90.2899 27.3426 89.77 27.9081 89.1133 28.3277C88.4384 28.729 87.6996 28.9296 86.897 28.9296ZM88.1283 18.9153C87.9094 18.7511 87.6996 18.6326 87.499 18.5596C87.2801 18.4684 87.0886 18.4228 86.9244 18.4228H84.3251C84.0514 19.1342 83.8508 19.873 83.7231 20.6391C83.5772 21.387 83.5042 22.1622 83.5042 22.9648C83.5042 24.4788 83.8143 25.701 84.4345 26.6312C85.0364 27.5615 85.8391 28.0267 86.8423 28.0267C87.499 28.0267 88.1009 27.8625 88.6482 27.5342C89.1954 27.1876 89.6332 26.7225 89.9615 26.1387C90.2899 25.5368 90.454 24.871 90.454 24.1414C90.454 23.0104 90.2442 21.9798 89.8247 21.0495C89.3869 20.101 88.8215 19.3896 88.1283 18.9153Z" fill="#FFFBF6"/>
<path d="M90.9739 28.9929V29.9232H83.0391C81.1785 29.9232 79.7739 30.2424 78.8254 30.8808C77.8769 31.5193 77.4026 32.4495 77.4026 33.6717C77.4026 34.4925 77.6124 35.3043 78.0319 36.1069C78.4332 36.8912 78.9896 37.5753 79.701 38.159C80.3941 38.7244 81.1876 39.1349 82.0814 39.3902H90.9739V40.3205H71V39.3902H80.3029C79.1537 38.8065 78.2417 37.9857 77.5668 36.9277C76.8736 35.8515 76.527 34.7114 76.527 33.5075C76.527 32.7414 76.673 32.0847 76.9648 31.5375C77.2384 30.972 77.658 30.5069 78.2234 30.1421C78.7707 29.759 79.4365 29.4763 80.2208 29.2939C81.0052 29.0932 81.9081 28.9929 82.9296 28.9929H90.9739Z" fill="#FFFBF6"/>
<path d="M91.2475 46.001C91.2475 47.0955 91.0651 48.117 90.7003 49.0655C90.3172 49.9958 89.7335 50.8167 88.9491 51.5281L88.2925 51.0356C89.0221 50.2694 89.5602 49.4851 89.9068 48.6825C90.2534 47.8799 90.4267 46.9952 90.4267 46.0284C90.4267 44.6968 90.1439 43.6206 89.5785 42.7997C89.013 41.9789 88.2286 41.5685 87.2254 41.5685C86.5687 41.5685 86.0579 41.76 85.6931 42.1431C85.3283 42.5079 85.0365 43.046 84.8176 43.7574C84.5804 44.4506 84.3433 45.2988 84.1062 46.302C83.8508 47.287 83.6045 48.1079 83.3674 48.7646C83.112 49.403 82.7746 49.8864 82.355 50.2147C81.9355 50.5431 81.3518 50.7072 80.6039 50.7072C79.6554 50.7072 78.8892 50.4792 78.3055 50.0232C77.7036 49.5489 77.2567 48.9287 76.9648 48.1626C76.673 47.3782 76.527 46.5209 76.527 45.5906C76.527 44.4597 76.7186 43.4838 77.1016 42.6629C77.4847 41.8421 77.9681 41.2493 78.5518 40.8844L79.0716 41.4864C78.5062 41.8877 78.0775 42.4714 77.7857 43.2375C77.4938 43.9854 77.3479 44.8063 77.3479 45.7001C77.3479 46.4297 77.4573 47.1046 77.6762 47.7248C77.8951 48.345 78.2326 48.8466 78.6886 49.2297C79.1264 49.6128 79.7192 49.8043 80.4671 49.8043C81.069 49.8043 81.5342 49.6675 81.8625 49.3939C82.1909 49.1203 82.4553 48.7098 82.656 48.1626C82.8384 47.6154 83.0391 46.9222 83.2579 46.0831C83.5316 44.9704 83.8143 44.0128 84.1062 43.2102C84.3798 42.3893 84.7446 41.76 85.2006 41.3222C85.6566 40.8844 86.2951 40.6656 87.1159 40.6656C88.3928 40.6656 89.4052 41.1581 90.153 42.1431C90.8827 43.1098 91.2475 44.3958 91.2475 46.001Z" fill="#FFFBF6"/>
<path d="M86.897 63C86.0579 63 85.3374 62.7446 84.7355 62.2339C84.1153 61.7231 83.6319 61.03 83.2853 60.1544C82.9205 59.2788 82.7381 58.2573 82.7381 57.0899C82.7381 56.3238 82.811 55.5303 82.957 54.7095C83.0847 53.8886 83.2671 53.1499 83.5042 52.4932H81.9993C80.613 52.4932 79.5003 52.9036 78.6612 53.7245C77.8039 54.5271 77.3752 55.6124 77.3752 56.9805C77.3752 57.6736 77.5212 58.4124 77.813 59.1968C78.1049 59.9629 78.5335 60.7472 79.099 61.5498L78.415 62.015C77.7765 61.0847 77.3023 60.2 76.9922 59.3609C76.6821 58.5218 76.527 57.7101 76.527 56.9258C76.527 55.2841 77.0287 53.9798 78.0319 53.0131C79.0169 52.0463 80.3576 51.5629 82.054 51.5629H89.5511C89.7517 51.5629 89.9068 51.5264 90.0162 51.4534C90.1074 51.3622 90.153 51.2346 90.153 51.0704H90.9739C90.9739 51.1981 90.9739 51.3075 90.9739 51.3987C90.9739 51.4717 90.9648 51.5355 90.9465 51.5903C90.8918 51.8456 90.755 52.0463 90.5361 52.1922C90.3172 52.3381 90.0801 52.4202 89.8247 52.4385H88.5934C89.4325 53.0951 90.0892 53.9433 90.5635 54.9831C91.0195 56.0228 91.2475 57.1355 91.2475 58.3212C91.2475 59.1968 91.056 59.9902 90.6729 60.7016C90.2899 61.413 89.77 61.9785 89.1133 62.398C88.4384 62.7994 87.6996 63 86.897 63ZM88.1283 52.9857C87.9094 52.8215 87.6996 52.703 87.499 52.63C87.2801 52.5388 87.0886 52.4932 86.9244 52.4932H84.3251C84.0514 53.2046 83.8508 53.9433 83.7231 54.7095C83.5772 55.4573 83.5042 56.2326 83.5042 57.0352C83.5042 58.5492 83.8143 59.7713 84.4345 60.7016C85.0364 61.6319 85.8391 62.0971 86.8423 62.0971C87.499 62.0971 88.1009 61.9329 88.6482 61.6046C89.1954 61.258 89.6332 60.7928 89.9615 60.2091C90.2899 59.6072 90.454 58.9414 90.454 58.2117C90.454 57.0808 90.2442 56.0502 89.8247 55.1199C89.3869 54.1714 88.8215 53.46 88.1283 52.9857Z" fill="#FFFBF6"/>
<path d="M83.3933 16C82.7361 13.0715 81.7873 10.6404 80.5468 8.70674C77.9085 4.51645 73.8346 2.4213 68.3251 2.4213C62.5829 2.4213 57.5778 4.40005 53.3099 8.35755C49.1196 12.2374 46.2097 17.2425 44.5801 23.3728V61.4346H42.2522V27.7958C42.2522 19.0273 40.933 12.6254 38.2947 8.59034C35.734 4.47765 31.6989 2.4213 26.1894 2.4213C20.5248 2.4213 15.5585 4.36125 11.2906 8.24115C7.10033 12.0435 4.11281 17.0485 2.32806 23.2564V61.4346H0.00012207V1.02454H2.32806V16.6217C4.96639 11.3451 8.3419 7.27118 12.4546 4.40005C16.5673 1.52893 20.9904 0.0933685 25.7238 0.0933685C30.7677 0.0933685 34.958 1.68413 38.2947 4.86564C41.6314 8.04716 43.5714 12.315 44.1146 17.6693C47.1409 11.7719 50.6328 7.38758 54.5903 4.51645C58.6254 1.56773 63.2037 0.0933685 68.3251 0.0933685C71.5066 0.0933685 74.2226 0.675353 76.4729 1.83932C78.8008 2.92569 80.7408 4.63285 82.2928 6.96079C83.8447 9.21113 84.9699 12.0823 85.6683 15.5742C85.6996 15.7152 85.7303 15.8571 85.7604 16H83.3933Z" fill="#FFFBF6"/>
</g>
</svg>
