<svg width="92" height="63" viewBox="0 0 92 63" fill="none" xmlns="http://www.w3.org/2000/svg">
<path d="M86.8969 28.8362C86.0578 28.8362 85.3373 28.5809 84.7354 28.0701C84.1152 27.5594 83.6318 26.8662 83.2852 25.9907C82.9204 25.1151 82.738 24.0936 82.738 22.9262C82.738 22.16 82.8109 21.3666 82.9569 20.5457C83.0845 19.7249 83.2669 18.9861 83.5041 18.3294H81.9992C80.6129 18.3294 79.5002 18.7399 78.6611 19.5607C77.8038 20.3633 77.3751 21.4486 77.3751 22.8167C77.3751 23.5099 77.521 24.2486 77.8129 25.033C78.1048 25.7991 78.5334 26.5835 79.0989 27.3861L78.4148 27.8512C77.7764 26.9209 77.3021 26.0363 76.9921 25.1972C76.682 24.3581 76.5269 23.5464 76.5269 22.762C76.5269 21.1203 77.0285 19.8161 78.0318 18.8493C79.0168 17.8825 80.3575 17.3991 82.0539 17.3991H89.551C89.7516 17.3991 89.9067 17.3627 90.0161 17.2897C90.1073 17.1985 90.1529 17.0708 90.1529 16.9066H90.9738C90.9738 17.0343 90.9738 17.1438 90.9738 17.235C90.9738 17.3079 90.9647 17.3718 90.9464 17.4265C90.8917 17.6819 90.7549 17.8825 90.536 18.0285C90.3171 18.1744 90.08 18.2565 89.8246 18.2747H88.5933C89.4324 18.9314 90.0891 19.7796 90.5633 20.8193C91.0194 21.8591 91.2474 22.9718 91.2474 24.1574C91.2474 25.033 91.0559 25.8265 90.6728 26.5379C90.2897 27.2493 89.7699 27.8148 89.1132 28.2343C88.4383 28.6356 87.6995 28.8362 86.8969 28.8362ZM88.1282 18.8219C87.9093 18.6578 87.6995 18.5392 87.4989 18.4662C87.28 18.375 87.0884 18.3294 86.9243 18.3294H84.3249C84.0513 19.0408 83.8507 19.7796 83.723 20.5457C83.577 21.2936 83.5041 22.0688 83.5041 22.8714C83.5041 24.3854 83.8142 25.6076 84.4344 26.5379C85.0363 27.4682 85.8389 27.9333 86.8422 27.9333C87.4989 27.9333 88.1008 27.7691 88.648 27.4408C89.1953 27.0942 89.6331 26.6291 89.9614 26.0454C90.2897 25.4434 90.4539 24.7776 90.4539 24.048C90.4539 22.917 90.2441 21.8864 89.8246 20.9561C89.3868 20.0076 88.8213 19.2962 88.1282 18.8219Z" fill="#FFFBF6"/>
<path d="M90.9738 28.8995V29.8298H83.0389C81.1784 29.8298 79.7738 30.149 78.8253 30.7875C77.8767 31.4259 77.4025 32.3562 77.4025 33.5783C77.4025 34.3992 77.6122 35.2109 78.0318 36.0135C78.4331 36.7979 78.9894 37.4819 79.7008 38.0656C80.394 38.6311 81.1875 39.0415 82.0813 39.2969H90.9738V40.2272H70.9999V39.2969H80.3028C79.1536 38.7132 78.2416 37.8923 77.5666 36.8343C76.8735 35.7581 76.5269 34.6181 76.5269 33.4142C76.5269 32.648 76.6728 31.9914 76.9647 31.4441C77.2383 30.8787 77.6578 30.4135 78.2233 30.0487C78.7705 29.6656 79.4363 29.3829 80.2207 29.2005C81.0051 28.9998 81.908 28.8995 82.9295 28.8995H90.9738Z" fill="#FFFBF6"/>
<path d="M91.2474 45.9077C91.2474 47.0021 91.065 48.0236 90.7002 48.9722C90.3171 49.9025 89.7334 50.7233 88.949 51.4347L88.2923 50.9422C89.022 50.1761 89.5601 49.3917 89.9067 48.5891C90.2533 47.7865 90.4265 46.9018 90.4265 45.935C90.4265 44.6034 90.1438 43.5272 89.5783 42.7064C89.0129 41.8855 88.2285 41.4751 87.2252 41.4751C86.5686 41.4751 86.0578 41.6666 85.693 42.0497C85.3282 42.4145 85.0363 42.9526 84.8174 43.664C84.5803 44.3572 84.3432 45.2054 84.106 46.2087C83.8507 47.1937 83.6044 48.0145 83.3673 48.6712C83.1119 49.3096 82.7744 49.793 82.3549 50.1213C81.9354 50.4497 81.3516 50.6138 80.6038 50.6138C79.6552 50.6138 78.8891 50.3858 78.3054 49.9298C77.7034 49.4555 77.2565 48.8354 76.9647 48.0692C76.6728 47.2849 76.5269 46.4275 76.5269 45.4973C76.5269 44.3663 76.7184 43.3904 77.1015 42.5696C77.4846 41.7487 77.9679 41.1559 78.5517 40.7911L79.0715 41.393C78.5061 41.7943 78.0774 42.378 77.7855 43.1442C77.4937 43.892 77.3477 44.7129 77.3477 45.6067C77.3477 46.3363 77.4572 47.0113 77.6761 47.6314C77.895 48.2516 78.2324 48.7533 78.6885 49.1363C79.1262 49.5194 79.7191 49.7109 80.467 49.7109C81.0689 49.7109 81.5341 49.5741 81.8624 49.3005C82.1907 49.0269 82.4552 48.6165 82.6559 48.0692C82.8383 47.522 83.0389 46.8288 83.2578 45.9898C83.5314 44.8771 83.8142 43.9194 84.106 43.1168C84.3796 42.296 84.7445 41.6666 85.2005 41.2289C85.6565 40.7911 86.295 40.5722 87.1158 40.5722C88.3927 40.5722 89.405 41.0647 90.1529 42.0497C90.8826 43.0165 91.2474 44.3025 91.2474 45.9077Z" fill="#FFFBF6"/>
<path d="M86.8969 62.9066C86.0578 62.9066 85.3373 62.6513 84.7354 62.1405C84.1152 61.6298 83.6318 60.9366 83.2852 60.061C82.9204 59.1855 82.738 58.164 82.738 56.9965C82.738 56.2304 82.8109 55.4369 82.9569 54.6161C83.0845 53.7953 83.2669 53.0565 83.5041 52.3998H81.9992C80.6129 52.3998 79.5002 52.8102 78.6611 53.6311C77.8038 54.4337 77.3751 55.519 77.3751 56.8871C77.3751 57.5803 77.521 58.319 77.8129 59.1034C78.1048 59.8695 78.5334 60.6539 79.0989 61.4565L78.4148 61.9216C77.7764 60.9913 77.3021 60.1066 76.9921 59.2676C76.682 58.4285 76.5269 57.6167 76.5269 56.8324C76.5269 55.1907 77.0285 53.8865 78.0318 52.9197C79.0168 51.9529 80.3575 51.4695 82.0539 51.4695H89.551C89.7516 51.4695 89.9067 51.433 90.0161 51.3601C90.1073 51.2689 90.1529 51.1412 90.1529 50.977H90.9738C90.9738 51.1047 90.9738 51.2142 90.9738 51.3054C90.9738 51.3783 90.9647 51.4422 90.9464 51.4969C90.8917 51.7523 90.7549 51.9529 90.536 52.0988C90.3171 52.2448 90.08 52.3269 89.8246 52.3451H88.5933C89.4324 53.0018 90.0891 53.85 90.5633 54.8897C91.0194 55.9295 91.2474 57.0422 91.2474 58.2278C91.2474 59.1034 91.0559 59.8969 90.6728 60.6083C90.2897 61.3197 89.7699 61.8851 89.1132 62.3047C88.4383 62.706 87.6995 62.9066 86.8969 62.9066ZM88.1282 52.8923C87.9093 52.7282 87.6995 52.6096 87.4989 52.5366C87.28 52.4454 87.0884 52.3998 86.9243 52.3998H84.3249C84.0513 53.1112 83.8507 53.85 83.723 54.6161C83.577 55.364 83.5041 56.1392 83.5041 56.9418C83.5041 58.4558 83.8142 59.678 84.4344 60.6083C85.0363 61.5386 85.8389 62.0037 86.8422 62.0037C87.4989 62.0037 88.1008 61.8395 88.648 61.5112C89.1953 61.1646 89.6331 60.6995 89.9614 60.1158C90.2897 59.5138 90.4539 58.848 90.4539 58.1184C90.4539 56.9874 90.2441 55.9568 89.8246 55.0265C89.3868 54.078 88.8213 53.3666 88.1282 52.8923Z" fill="#FFFBF6"/>
<path d="M83.3932 15.9066C82.736 12.9781 81.7871 10.547 80.5467 8.61337C77.9084 4.42308 73.8345 2.32794 68.325 2.32794C62.5827 2.32794 57.5777 4.30668 53.3098 8.26418C49.1195 12.1441 46.2096 17.1491 44.58 23.2794V61.3412H42.2521V27.7025C42.2521 18.9339 40.9329 12.5321 38.2946 8.49697C35.7339 4.38428 31.6988 2.32794 26.1893 2.32794C20.5247 2.32794 15.5584 4.26789 11.2905 8.14778C7.10021 11.9501 4.11269 16.9552 2.32794 23.163V61.3412H0V0.93117H2.32794V16.5284C4.96627 11.2517 8.34178 7.17781 12.4545 4.30669C16.5672 1.43556 20.9902 0 25.7237 0C30.7676 0 34.9579 1.59076 38.2946 4.77227C41.6313 7.95379 43.5713 12.2217 44.1144 17.5759C47.1408 11.6785 50.6327 7.29421 54.5902 4.42308C58.6253 1.47436 63.2035 0 68.325 0C71.5065 0 74.2225 0.581984 76.4728 1.74595C78.8007 2.83232 80.7407 4.53948 82.2926 6.86742C83.8446 9.11776 84.9698 11.9889 85.6682 15.4808C85.6995 15.6218 85.7302 15.7637 85.7603 15.9066H83.3932Z" fill="#FFFBF6"/>
</svg>
